<?xml version="1.0" encoding="UTF-8" standalone="no"?>
<svg
   xml:space="preserve"
   id="Layer_1"
   x="0"
   y="0"
   version="1.1"
   viewBox="0 0 32 32"
   sodipodi:docname="app_icon.svg"
   width="32"
   height="32"
   inkscape:version="1.2.2 (b0a8486541, 2022-12-01)"
   xmlns:inkscape="http://www.inkscape.org/namespaces/inkscape"
   xmlns:sodipodi="http://sodipodi.sourceforge.net/DTD/sodipodi-0.dtd"
   xmlns="http://www.w3.org/2000/svg"
   xmlns:svg="http://www.w3.org/2000/svg"><defs
     id="defs13" /><sodipodi:namedview
     id="namedview11"
     pagecolor="#ffffff"
     bordercolor="#000000"
     borderopacity="0.25"
     inkscape:showpageshadow="2"
     inkscape:pageopacity="0.0"
     inkscape:pagecheckerboard="0"
     inkscape:deskcolor="#d1d1d1"
     showgrid="false"
     inkscape:zoom="10.429825"
     inkscape:cx="3.4516399"
     inkscape:cy="10.211101"
     inkscape:window-width="1920"
     inkscape:window-height="1128"
     inkscape:window-x="0"
     inkscape:window-y="0"
     inkscape:window-maximized="1"
     inkscape:current-layer="Layer_1" /><style
     id="style2">.st1{fill:#fff}</style><path
     d="M 27.03125,32 H 4.96875 C 2.225,32 0,29.775 0,27.03125 V 4.96875 C 0,2.225 2.225,0 4.96875,0 h 22.0625 C 29.775,0 32,2.225 32,4.96875 v 22.0625 C 32,29.775 29.775,32 27.03125,32"
     style="fill:#ff0001;stroke-width:0.0625"
     id="path4" /><path
     d="M 10.996465,4.058218 C 9.2534113,4.3699982 7.8508544,5.6599663 7.4087094,7.3560694 7.2491725,7.96869 7.2382331,8.32742 7.2564656,13.078423 c 0.01094,4.363556 0.014586,4.464747 0.087062,4.802054 0.4024881,1.815527 1.6924575,3.109597 3.5262194,3.537155 0.239306,0.05424 0.543793,0.06519 2.504273,0.07612 2.029308,0.01459 2.239897,0.01094 2.294139,-0.0433 0.05424,-0.05424 0.05789,-0.753925 0.05789,-8.683354 0,-5.8782429 -0.01094,-8.6468879 -0.03646,-8.6979397 -0.03647,-0.065186 -0.09801,-0.068832 -2.221668,-0.065186 -1.724821,0.00365 -2.243088,0.014586 -2.471454,0.054242 m 3.280077,8.6979397 v 7.342334 l -1.475031,-0.01823 C 11.442715,20.065668 11.297308,20.058378 11.02564,19.989548 9.8587394,19.688711 8.9926819,18.789835 8.7497306,17.619292 8.6699619,17.253269 8.6699619,8.2367119 8.7460869,7.8779819 8.9635125,6.8596825 9.6700325,6.0150494 10.623151,5.6348963 11.101306,5.4429964 11.322378,5.4211171 12.873533,5.4174705 l 1.402556,-0.00365 v 7.3423335 z"
     class="st1"
     id="path6"
     style="stroke-width:0.0455819" /><path
     d="M 11.308246,7.6281931 C 11.07988,7.6714963 10.73209,7.8456194 10.547027,8.0088025 10.166418,8.3388156 9.9781644,8.80603 10.006881,9.357115 c 0.01459,0.2862544 0.03282,0.3623756 0.148597,0.5943881 0.170476,0.3514369 0.427558,0.6089749 0.778996,0.7826409 0.242951,0.119425 0.304487,0.134011 0.619914,0.14495 0.286255,0.01094 0.387903,0 0.579803,-0.06518 0.786288,-0.264371 1.261252,-1.0292359 1.127242,-1.8118765 -0.155435,-0.931695 -1.039725,-1.555255 -1.953187,-1.3738394 m 6.182736,-3.6023383 c -0.01459,0.01094 -0.02553,3.939189 -0.02553,8.7303032 0,7.903903 0.0036,8.704778 0.05789,8.726657 0.098,0.03647 2.909952,0.02188 3.258197,-0.01459 1.471386,-0.166831 2.768648,-1.06206 3.475624,-2.391683 0.09071,-0.170477 0.210133,-0.456731 0.271669,-0.634045 0.228365,-0.681449 0.221072,-0.500033 0.221072,-5.707767 0,-4.156614 -0.0073,-4.7765277 -0.05789,-5.0409027 -0.358737,-1.8880029 -1.79776,-3.3124375 -3.689411,-3.6383482 -0.253891,-0.043303 -0.644984,-0.054242 -1.906237,-0.054242 -0.869704,-9.119e-4 -1.594457,0.010028 -1.605396,0.024614 m 3.870364,7.8929639 c 0.565215,0.148597 1.02924,0.579802 1.217493,1.130887 0.119425,0.340496 0.115778,0.840985 -0.0036,1.15231 -0.221072,0.572509 -0.655924,0.974997 -1.213847,1.123594 -0.906169,0.235659 -1.870227,-0.311781 -2.134602,-1.210655 -0.07977,-0.275316 -0.07612,-0.739339 0.01459,-1.021946 0.271667,-0.887936 1.213847,-1.40985 2.120016,-1.17419"
     class="st1"
     id="path8"
     style="stroke-width:0.0455819" /><text
     xml:space="preserve"
     style="font-style:normal;font-variant:normal;font-weight:normal;font-stretch:normal;font-size:6.02214px;font-family:'Noto Sans Mono';-inkscape-font-specification:'Noto Sans Mono';fill:#ffffff;stroke-width:0.0627306"
     x="4.6001158"
     y="28.040699"
     id="text898"><tspan
       sodipodi:role="line"
       id="tspan896"
       x="4.6001158"
       y="28.040699"
       style="font-style:normal;font-variant:normal;font-weight:bold;font-stretch:normal;font-size:6.02214px;font-family:'Noto Sans CJK JP';-inkscape-font-specification:'Noto Sans CJK JP Bold';stroke-width:0.0627306">ONLINE</tspan></text></svg>
